<svg xmlns="http://www.w3.org/2000/svg" width="648" height="459" viewBox="0 0 648 459" font-family="DejaVu Sans, sans-serif">
  <style>.id{font-size:9px;fill:#333}.name{font-size:8px;fill:#777}.key{font-size:10px;fill:#333}</style>
  <rect width="648" height="459" fill="#fbfbfa"/>
  <rect x="220.2" y="126.6" width="283.4" height="182.0" fill="#ffffff" stroke="#2c3e50" stroke-width="1.4"/>
  <text class="id" x="361.9" y="217.6" text-anchor="middle">L3_ROOM</text>
  <text class="name" x="361.9" y="227.6" text-anchor="middle">Attic Room</text>
  <rect x="220.2" y="308.6" width="62.4" height="70.2" fill="#ffffff" stroke="#2c3e50" stroke-width="1.4"/>
  <rect x="469.8" y="308.6" width="33.8" height="70.2" fill="#ffffff" stroke="#2c3e50" stroke-width="1.4"/>
  <rect x="503.6" y="274.8" width="98.8" height="104.0" fill="#e8eef6" stroke="#2c3e50" stroke-width="1.4"/>
  <text class="id" x="553.0" y="326.8" text-anchor="middle">L3_STAIR_HEAD</text>
  <text class="name" x="553.0" y="336.8" text-anchor="middle">Attic Stair Head</text>
  <rect x="503.6" y="46.0" width="98.8" height="228.8" fill="#efeceb" stroke="#2c3e50" stroke-width="1.4"/>
  <text class="id" x="553.0" y="160.4" text-anchor="middle">L3_STORE_E</text>
  <text class="name" x="553.0" y="170.4" text-anchor="middle">East Attic Services</text>
  <rect x="220.2" y="46.0" width="283.4" height="80.6" fill="#efeceb" stroke="#2c3e50" stroke-width="1.4"/>
  <text class="id" x="361.9" y="86.3" text-anchor="middle">L3_STORE_N</text>
  <text class="name" x="361.9" y="96.3" text-anchor="middle">North Attic Store</text>
  <rect x="282.6" y="308.6" width="187.2" height="70.2" fill="#efeceb" stroke="#2c3e50" stroke-width="1.4"/>
  <text class="id" x="376.2" y="343.7" text-anchor="middle">L3_STORE_S</text>
  <text class="name" x="376.2" y="353.7" text-anchor="middle">South Attic Store</text>
  <rect x="46.0" y="46.0" width="174.2" height="332.8" fill="#efeceb" stroke="#2c3e50" stroke-width="1.4"/>
  <text class="id" x="133.1" y="212.4" text-anchor="middle">L3_STORE_W</text>
  <text class="name" x="133.1" y="222.4" text-anchor="middle">West Attic Store</text>
  <line x1="503.6" y1="277.4" x2="503.6" y2="306.0" stroke="#7f8c8d" stroke-width="3.2" stroke-linecap="round"/>
  <line x1="341.1" y1="126.6" x2="382.7" y2="126.6" stroke="#7f8c8d" stroke-width="3.2" stroke-linecap="round"/>
  <line x1="341.1" y1="308.6" x2="382.7" y2="308.6" stroke="#7f8c8d" stroke-width="3.2" stroke-linecap="round"/>
  <line x1="220.2" y1="196.8" x2="220.2" y2="238.4" stroke="#7f8c8d" stroke-width="3.2" stroke-linecap="round"/>
  <line x1="538.7" y1="274.8" x2="567.3" y2="274.8" stroke="#7f8c8d" stroke-width="3.2" stroke-linecap="round"/>
  <line x1="220.2" y1="70.7" x2="220.2" y2="101.9" stroke="#7f8c8d" stroke-width="3.2" stroke-linecap="round"/>
  <line x1="503.6" y1="70.7" x2="503.6" y2="101.9" stroke="#7f8c8d" stroke-width="3.2" stroke-linecap="round"/>
  <rect x="511.4" y="287.8" width="83.2" height="78.0" fill="none" stroke="#8e44ad" stroke-width="1.6" stroke-dasharray="5 3"/>
  <line x1="222.8" y1="378.8" x2="248.8" y2="378.8" stroke="#2e86c1" stroke-width="3.2" stroke-linecap="round"/>
  <line x1="254.0" y1="378.8" x2="280.0" y2="378.8" stroke="#2e86c1" stroke-width="3.2" stroke-linecap="round"/>
  <line x1="473.7" y1="378.8" x2="499.7" y2="378.8" stroke="#2e86c1" stroke-width="3.2" stroke-linecap="round"/>
  <line x1="449.0" y1="46.0" x2="475.0" y2="46.0" stroke="#2e86c1" stroke-width="3.2" stroke-linecap="round"/>
  <line x1="475.0" y1="46.0" x2="501.0" y2="46.0" stroke="#2e86c1" stroke-width="3.2" stroke-linecap="round"/>
  <line x1="46.0" y1="202.0" x2="46.0" y2="222.8" stroke="#2e86c1" stroke-width="3.2" stroke-linecap="round"/>
  <line x1="602.4" y1="105.8" x2="602.4" y2="126.6" stroke="#2e86c1" stroke-width="3.2" stroke-linecap="round"/>
  <g stroke="#2c3e50" stroke-width="1.4" fill="none"><line x1="618" y1="34" x2="618" y2="8"/><path d="M614 14 L618 8 L622 14"/></g>
  <text class="key" x="618" y="46" text-anchor="middle">N</text>
  <line x1="46.0" y1="440.8" x2="176.0" y2="440.8" stroke="#2c3e50" stroke-width="2"/>
  <text class="key" x="46.0" y="434.8">5 m</text>
  <text class="key" x="190.0" y="444.8">L3 &#183; 6 cells &#183; 15 portals</text>
</svg>
